<?xml version="1.0" standalone="no"?>
<!DOCTYPE svg PUBLIC "-//W3C//DTD SVG 20010904//EN"
 "http://www.w3.org/TR/2001/REC-SVG-20010904/DTD/svg10.dtd">
<svg version="1.0" xmlns="http://www.w3.org/2000/svg"
 width="285.000000pt" height="122.000000pt" viewBox="0 0 285.000000 122.000000"
 preserveAspectRatio="xMidYMid meet">
<metadata>
Created by potrace 1.10, written by Peter Selinger 2001-2011
</metadata>
<g transform="translate(0.000000,122.000000) scale(0.050000,-0.050000)"
fill="#ffffff" stroke="none">
<path d="M1649 2180 c-36 -11 -110 -75 -180 -154 l-119 -134 -2 -171 c0 -94
-13 -225 -27 -291 -41 -189 -34 -340 26 -526 29 -91 58 -201 65 -244 9 -55 29
-89 65 -112 29 -18 77 -56 107 -83 34 -32 68 -46 94 -40 21 6 58 -3 81 -19 70
-49 126 -25 191 83 33 55 103 141 155 190 89 85 95 98 95 193 0 56 19 155 42
220 86 242 43 828 -61 828 -8 0 -38 43 -66 95 -83 151 -283 222 -466 165z
m215 -800 c14 -205 -6 -439 -44 -500 -39 -63 -99 82 -99 240 -1 39 -16 112
-34 164 -47 130 29 325 121 312 38 -5 43 -24 56 -216z"/>
<path d="M2445 2179 c-93 -37 -157 -406 -86 -502 30 -41 40 -80 36 -142 -5
-92 1 -95 129 -64 88 22 110 -51 79 -263 -17 -117 -18 -180 -4 -207 12 -21 21
-65 21 -97 0 -33 14 -91 30 -131 17 -39 30 -119 30 -177 1 -315 218 -291 235
26 7 116 20 179 42 205 28 32 32 80 26 322 -8 302 12 373 95 340 164 -65 194
-35 207 211 22 383 -32 506 -199 464 -78 -20 -142 -19 -336 6 -273 34 -246 33
-305 9z"/>
<path d="M3692 2171 c-42 -16 -84 -35 -92 -45 -9 -9 -59 -70 -113 -136 l-97
-120 5 -143 c3 -79 -8 -214 -25 -300 -16 -86 -30 -197 -30 -246 0 -90 138
-606 165 -618 8 -3 53 -38 99 -76 58 -49 98 -67 130 -61 25 4 56 -4 68 -19 54
-64 154 -12 219 112 14 28 69 96 122 153 90 94 99 113 115 240 10 76 33 192
50 257 69 259 28 630 -85 763 -29 34 -69 91 -88 126 -65 121 -271 174 -443
113z m215 -616 c17 -62 13 -421 -5 -550 -31 -220 -99 -188 -123 58 -10 92 -32
198 -49 237 -31 68 -30 75 20 185 59 127 133 160 157 70z"/>
<path d="M4800 2162 c-38 -20 -102 -42 -141 -50 -131 -23 -184 -104 -201 -307
-8 -96 -21 -196 -29 -221 -10 -33 -2 -64 27 -103 22 -30 52 -95 65 -143 32
-120 85 -188 195 -251 170 -97 205 -160 175 -318 -23 -121 -110 -111 -111 12
0 99 -44 131 -125 93 -39 -19 -80 -34 -90 -34 -48 0 -85 -77 -85 -177 0 -96 3
-103 49 -103 31 0 64 -21 91 -59 95 -135 315 -127 461 17 128 126 136 147 151
395 l13 217 -96 76 c-55 43 -129 80 -173 87 -87 14 -131 112 -107 240 30 158
144 172 135 16 -7 -116 26 -173 97 -171 238 6 299 59 263 228 -13 57 -27 156
-32 220 -22 272 -309 454 -532 336z"/>
<path d="M616 2130 c-7 -8 -68 -14 -135 -13 -186 3 -230 -119 -172 -477 17
-104 31 -256 31 -338 0 -109 10 -164 38 -210 28 -46 40 -114 47 -267 6 -141
18 -216 39 -240 16 -19 41 -64 55 -99 33 -84 72 -96 116 -34 19 28 55 76 80
107 39 49 45 81 45 227 0 227 35 291 116 210 38 -38 76 16 111 154 16 66 36
135 43 152 20 53 -44 98 -139 98 -96 0 -138 33 -128 104 7 49 104 62 218 29
99 -29 187 57 201 198 7 65 18 160 26 209 20 131 1 148 -192 164 -91 7 -215
19 -276 27 -60 7 -116 7 -124 -1z"/>
</g>
</svg>
