<?xml version="1.0" standalone="no"?>
<!DOCTYPE svg PUBLIC "-//W3C//DTD SVG 20010904//EN"
 "http://www.w3.org/TR/2001/REC-SVG-20010904/DTD/svg10.dtd">
<svg version="1.0" xmlns="http://www.w3.org/2000/svg"
 width="300.000000pt" height="139.000000pt" viewBox="0 0 300.000000 139.000000"
 preserveAspectRatio="xMidYMid meet">
<metadata>
Created by potrace 1.10, written by Peter Selinger 2001-2011
</metadata>
<g transform="translate(0.000000,139.000000) scale(0.050000,-0.050000)"
fill="#ffffff" stroke="none">
<path d="M783 2519 c-46 -44 -46 -46 -46 -519 0 -218 46 -444 98 -489 66 -57
105 -46 105 30 0 31 9 62 20 69 11 7 20 52 20 100 0 48 9 93 21 101 31 19 79
-30 79 -80 0 -25 17 -60 38 -79 20 -19 42 -59 48 -89 13 -65 96 -113 132 -77
53 53 26 261 -42 321 l-64 57 42 33 c137 109 124 499 -19 591 -99 64 -376 83
-432 31z m302 -257 c69 -26 56 -242 -14 -242 -4 0 -21 -5 -37 -11 -23 -9 -32
18 -43 130 -13 136 -1 210 27 164 7 -11 37 -30 67 -41z"/>
<path d="M1590 2537 c-99 -54 -168 -163 -169 -265 -1 -53 -11 -154 -24 -223
-41 -219 122 -642 223 -579 10 6 38 0 61 -14 39 -23 48 -20 86 33 24 32 72 92
108 132 36 41 65 94 65 119 0 24 14 100 32 167 100 381 -134 765 -382 630z
m146 -503 c10 -275 -47 -378 -87 -154 -12 72 -26 139 -30 150 -9 25 19 111 46
146 43 53 65 8 71 -142z"/>
<path d="M3449 2535 c-65 -36 -70 -57 -65 -289 2 -124 -1 -230 -7 -236 -6 -6
1 -63 15 -126 15 -63 28 -160 28 -215 0 -84 9 -110 55 -154 83 -80 113 -39
139 185 15 134 106 160 106 31 0 -25 17 -60 38 -79 20 -19 42 -59 48 -89 13
-65 96 -113 132 -77 52 52 27 260 -40 323 -61 57 -61 59 -22 89 117 94 130
439 21 555 -68 73 -365 127 -448 82z m296 -281 c52 -19 21 -234 -34 -234 -4 0
-21 -5 -36 -11 -23 -9 -32 19 -42 131 -15 161 -5 196 44 154 18 -15 49 -34 68
-40z"/>
<path d="M4057 2526 c-40 -44 -69 -256 -38 -275 11 -7 21 -44 21 -82 0 -66 3
-69 65 -64 l65 5 2 -180 c1 -99 13 -205 25 -236 13 -31 23 -86 23 -121 0 -96
41 -144 97 -115 36 19 43 41 43 129 0 58 11 116 25 130 15 15 24 90 25 209 l0
184 80 0 80 0 14 120 c31 254 5 299 -174 301 -66 1 -165 9 -221 17 -84 12
-106 9 -132 -22z"/>
<path d="M4830 2541 c-78 -32 -170 -172 -170 -259 0 -45 -11 -144 -24 -221
-22 -128 -20 -154 20 -290 24 -83 44 -162 44 -177 0 -31 112 -118 158 -123 18
-2 49 -12 71 -21 30 -14 47 -5 80 40 22 32 70 91 106 131 37 42 65 96 65 125
0 28 15 108 32 177 96 375 -120 725 -382 618z m138 -373 c7 -17 11 -91 10
-165 -5 -266 -53 -336 -90 -132 -12 65 -27 137 -34 159 -26 77 86 212 114 138z"/>
<path d="M2175 2515 c-39 -13 -60 -39 -74 -91 -26 -93 -27 -633 -2 -679 10
-19 25 -87 31 -150 15 -139 33 -151 215 -147 228 5 390 279 251 426 l-43 46
58 61 c108 113 103 402 -8 502 -64 57 -299 75 -428 32z m223 -303 c14 -17 18
-58 10 -107 -28 -177 -85 -157 -84 28 1 109 27 136 74 79z m11 -409 c16 -50
-23 -148 -54 -138 -31 10 -42 63 -26 127 14 57 63 64 80 11z"/>
<path d="M2795 2520 c-42 -26 -42 -614 1 -665 13 -16 23 -64 23 -107 -2 -222
-1 -226 45 -255 62 -39 190 -60 206 -34 7 12 38 21 69 21 63 0 90 25 108 103
23 97 -1 122 -101 107 -105 -15 -146 10 -146 92 0 72 60 110 122 77 55 -30 89
4 106 105 15 81 6 87 -138 101 -40 3 -62 17 -67 43 -10 55 35 74 140 61 111
-15 116 -8 148 174 30 178 27 181 -173 177 -93 -1 -199 3 -238 9 -38 6 -86 2
-105 -9z"/>
<path d="M1413 1260 c-92 -28 -191 -156 -192 -249 -1 -43 -12 -152 -24 -240
-22 -149 -20 -172 20 -290 23 -71 43 -143 43 -160 0 -106 255 -195 314 -110
20 29 64 86 99 126 39 46 66 103 73 153 5 44 22 141 36 215 47 245 -58 510
-221 555 -80 22 -72 22 -148 0z m116 -566 c-2 -209 -30 -286 -68 -186 -12 30
-21 82 -21 115 0 33 -9 76 -20 97 -28 52 29 185 76 176 29 -6 34 -33 33 -202z"/>
<path d="M2783 1232 c-156 -61 -217 -252 -139 -432 16 -38 36 -86 42 -105 7
-19 54 -64 104 -99 96 -68 123 -122 101 -207 -16 -66 -58 -53 -71 23 -11 64
-21 67 -115 30 -76 -30 -97 -152 -30 -176 19 -7 51 -29 71 -49 121 -125 338
19 361 240 17 168 -19 218 -192 271 -44 14 -49 156 -6 191 42 35 66 12 56 -54
-11 -77 29 -107 123 -91 95 15 109 51 86 212 -38 259 -161 336 -391 246z"/>
<path d="M3895 1249 l-55 -30 -4 -245 c-8 -542 47 -812 163 -789 32 6 65 122
63 227 -2 93 40 143 84 99 19 -19 34 -51 34 -72 0 -22 18 -57 40 -79 22 -22
40 -58 40 -80 0 -57 91 -113 130 -80 61 51 40 259 -33 320 l-63 52 51 51 c86
86 99 411 21 530 -38 58 -72 71 -226 87 -71 7 -143 19 -160 26 -16 7 -55 -1
-85 -17z m275 -269 c88 0 74 -187 -19 -247 -45 -30 -46 -29 -58 43 -28 166 -8
307 32 235 9 -17 30 -31 45 -31z"/>
<path d="M5429 1259 c-102 -30 -199 -169 -200 -289 -1 -55 -9 -160 -18 -234
-44 -364 238 -734 390 -512 25 36 70 93 100 126 34 37 58 90 64 140 5 44 21
149 36 234 40 240 -63 492 -219 536 -81 22 -71 22 -153 -1z m118 -494 c13
-150 -5 -288 -40 -299 -26 -9 -46 56 -47 148 0 35 -10 86 -22 112 -17 38 -15
62 11 111 53 103 84 80 98 -72z"/>
<path d="M831 1228 c-17 -17 -31 -42 -31 -56 0 -14 -17 -41 -38 -61 -23 -20
-44 -75 -52 -133 -19 -135 -68 -112 -70 32 -1 100 -40 181 -98 203 -75 28
-234 11 -267 -29 -35 -42 -39 -441 -4 -490 14 -22 21 -68 15 -112 -13 -97 29
-366 60 -386 35 -22 45 -20 95 21 49 39 49 39 55 402 3 111 11 181 22 170 24
-26 65 -236 72 -371 13 -278 127 -269 160 13 8 66 27 139 42 163 15 25 29 74
29 110 4 188 35 122 42 -88 6 -209 12 -238 50 -274 26 -24 40 -56 34 -78 -11
-41 40 -94 71 -75 38 23 62 160 50 281 -8 76 -1 180 18 280 43 226 42 444 -2
467 -72 37 -221 43 -253 11z"/>
<path d="M2010 1228 c-44 -16 -91 -40 -104 -54 -31 -31 -41 -429 -13 -484 12
-22 27 -133 34 -247 23 -402 174 -325 187 96 9 273 51 263 116 -28 7 -32 39
-89 71 -126 33 -36 59 -88 59 -115 0 -60 69 -104 110 -70 27 22 35 126 62 755
l11 265 -55 21 c-31 11 -83 18 -117 15 l-61 -6 -6 -145 c-7 -177 -21 -181 -83
-20 -43 112 -88 178 -120 174 -6 -1 -47 -15 -91 -31z"/>
<path d="M3219 1218 c-20 -38 -20 -79 5 -348 4 -42 15 -58 36 -53 86 22 90 17
95 -127 18 -484 155 -741 199 -372 6 57 18 107 27 112 8 5 10 86 4 179 -12
195 5 233 101 226 69 -6 90 50 93 246 2 152 -16 162 -295 171 -230 8 -244 6
-265 -34z"/>
<path d="M4524 1205 c-8 -19 -13 -170 -11 -335 4 -460 63 -634 219 -646 43 -3
97 -15 120 -26 164 -83 271 184 270 678 -1 383 5 364 -133 364 l-109 0 -1
-185 c-3 -448 -7 -504 -41 -511 -48 -9 -57 51 -58 359 0 151 -5 288 -12 305
-18 48 -224 45 -244 -3z"/>
</g>
</svg>
