<?xml version="1.0" standalone="no"?>
<!DOCTYPE svg PUBLIC "-//W3C//DTD SVG 20010904//EN"
 "http://www.w3.org/TR/2001/REC-SVG-20010904/DTD/svg10.dtd">
<svg version="1.0" xmlns="http://www.w3.org/2000/svg"
 width="213.000000pt" height="95.000000pt" viewBox="0 0 213.000000 95.000000"
 preserveAspectRatio="xMidYMid meet">
<metadata>
Created by potrace 1.10, written by Peter Selinger 2001-2011
</metadata>
<g transform="translate(0.000000,95.000000) scale(0.100000,-0.100000)"
fill="#ffffff" stroke="none">
<path d="M240 825 c-14 -8 -33 -14 -43 -15 -10 0 -31 -12 -46 -28 -25 -24 -28
-37 -34 -112 -4 -61 -2 -89 7 -100 7 -8 18 -34 25 -58 10 -35 21 -49 65 -77
55 -35 66 -50 66 -90 0 -61 -35 -76 -46 -20 -3 19 -10 37 -14 40 -4 2 -26 -4
-49 -15 -39 -19 -41 -23 -41 -65 0 -35 4 -45 16 -45 9 0 27 -11 40 -25 19 -20
33 -25 73 -25 44 0 55 4 85 35 20 19 39 43 44 52 13 25 24 156 14 171 -16 23
-76 62 -98 62 -12 0 -25 7 -28 16 -10 27 -7 89 6 102 24 24 37 13 40 -35 l3
-48 55 3 c30 2 58 8 62 15 12 19 -2 158 -21 196 -9 19 -27 42 -41 52 -36 25
-109 32 -140 14z"/>
<path d="M493 830 c-24 -10 -29 -22 -38 -103 -5 -47 -3 -62 10 -77 12 -13 15
-27 10 -48 -7 -36 6 -47 37 -31 35 19 51 -12 42 -81 -8 -68 -9 -63 6 -130 7
-30 15 -77 19 -105 8 -60 16 -75 40 -75 29 0 40 22 48 91 3 35 10 67 16 70 5
4 10 58 11 120 l1 114 45 0 45 0 7 45 c11 72 9 153 -5 179 -11 24 -17 25 -107
26 -52 1 -111 4 -130 8 -19 3 -45 2 -57 -3z"/>
<path d="M938 827 c-31 -14 -98 -92 -99 -115 0 -10 -2 -39 -3 -67 -2 -27 -7
-84 -11 -126 -7 -67 -4 -88 20 -175 23 -80 34 -104 58 -124 17 -13 40 -25 51
-26 12 -1 29 -5 39 -9 26 -11 43 0 70 42 14 21 39 51 56 67 25 24 31 38 31 70
0 23 7 63 15 90 18 59 20 179 3 227 -6 19 -21 46 -34 61 -12 16 -25 36 -29 47
-7 22 -72 51 -113 51 -15 -1 -39 -6 -54 -13z m86 -278 c4 -38 4 -94 1 -123
-13 -101 -38 -100 -50 3 -3 31 -11 68 -16 83 -14 34 15 108 42 108 13 0 18
-14 23 -71z"/>
<path d="M1268 825 c-36 -20 -42 -46 -36 -173 3 -59 2 -117 -3 -129 -4 -12 -4
-36 2 -55 6 -18 14 -77 19 -131 8 -88 12 -100 37 -122 38 -33 57 -28 61 15 2
19 8 39 13 44 5 6 9 34 9 63 0 39 4 55 15 59 21 8 45 -14 45 -41 0 -12 9 -34
21 -49 11 -14 25 -41 30 -60 7 -24 18 -37 40 -47 47 -19 60 4 53 95 -4 64 -8
74 -34 96 -33 27 -38 45 -16 53 34 13 50 69 49 172 0 157 -30 195 -163 207
-41 3 -84 9 -95 12 -11 3 -32 -1 -47 -9z m140 -145 c7 -11 21 -20 32 -20 17 0
20 -7 20 -51 0 -44 -4 -55 -31 -80 -17 -16 -34 -29 -39 -29 -4 0 -10 38 -13
85 -8 110 2 141 31 95z"/>
<path d="M1642 812 c-18 -18 -19 -32 -17 -196 2 -97 7 -182 13 -189 5 -6 13
-55 17 -107 7 -104 20 -130 64 -130 14 0 32 -4 40 -9 10 -6 25 -4 42 5 16 8
39 14 52 14 35 0 57 30 57 77 0 48 -8 53 -70 46 -56 -6 -73 9 -68 64 l3 38 55
0 55 0 9 42 c12 59 5 69 -55 76 -62 8 -79 20 -63 45 9 13 26 17 72 17 34 0 66
5 73 12 13 13 40 168 32 188 -3 11 -31 14 -111 13 -59 0 -123 3 -144 7 -29 6
-40 3 -56 -13z"/>
</g>
</svg>
