<?xml version="1.0" standalone="no"?>
<!DOCTYPE svg PUBLIC "-//W3C//DTD SVG 20010904//EN"
 "http://www.w3.org/TR/2001/REC-SVG-20010904/DTD/svg10.dtd">
<svg version="1.0" xmlns="http://www.w3.org/2000/svg"
 width="255.000000pt" height="121.000000pt" viewBox="0 0 255.000000 121.000000"
 preserveAspectRatio="xMidYMid meet">
<metadata>
Created by potrace 1.10, written by Peter Selinger 2001-2011
</metadata>
<g transform="translate(0.000000,121.000000) scale(0.050000,-0.050000)"
fill="#ffffff" stroke="none">
<path d="M466 2100 c-93 -38 -161 -394 -94 -494 23 -34 38 -91 38 -146 0 -97
6 -100 135 -69 83 21 105 -55 76 -266 -16 -115 -16 -177 -2 -204 12 -21 21
-66 21 -100 0 -34 14 -95 30 -134 17 -40 30 -123 30 -185 0 -307 214 -272 234
38 8 115 22 182 44 207 27 32 31 81 25 322 -8 302 12 373 95 340 176 -69 202
-32 206 296 5 346 -38 424 -210 377 -66 -18 -135 -17 -324 7 -273 35 -246 34
-304 11z"/>
<path d="M1697 2084 c-174 -81 -304 -286 -286 -450 7 -61 -1 -170 -20 -264
-45 -230 -39 -347 28 -567 32 -106 64 -222 71 -258 7 -36 21 -65 30 -65 9 0
55 -32 102 -72 59 -49 100 -69 132 -62 25 4 56 -4 68 -19 59 -70 135 -23 246
150 30 48 85 114 122 146 57 50 69 76 79 173 7 63 28 168 47 234 54 191 48
592 -11 710 -171 340 -374 455 -608 344z m231 -626 c31 -160 1 -617 -44 -662
-41 -41 -67 11 -85 175 -10 85 -32 191 -49 237 -31 80 -30 87 20 197 64 138
136 162 158 53z"/>
<path d="M3740 2070 c-38 -28 -76 -68 -83 -89 -20 -52 -8 -926 12 -960 9 -14
24 -126 33 -248 22 -291 20 -282 98 -363 99 -102 180 -86 180 35 0 31 13 82
29 113 17 34 28 104 26 175 -6 219 136 250 174 38 8 -44 41 -109 73 -146 32
-37 58 -89 58 -117 0 -113 178 -210 241 -131 75 92 17 503 -70 503 -13 0 -43
27 -68 60 l-44 60 52 24 c106 48 162 238 156 528 -8 387 -114 500 -497 530
-110 9 -222 21 -250 27 -34 7 -72 -5 -120 -39z m395 -389 c13 -22 54 -47 90
-57 114 -29 105 -209 -18 -345 -108 -119 -119 -109 -146 140 -30 275 0 381 74
262z"/>
<path d="M2546 2064 c-68 -43 -106 -401 -67 -630 18 -105 19 -174 4 -256 -17
-95 -15 -132 18 -237 22 -68 39 -141 39 -162 0 -209 157 -390 332 -385 115 4
139 -1 163 -35 34 -49 62 -49 125 1 28 22 64 39 82 40 59 0 96 70 172 321 l75
249 1 522 c0 621 12 588 -210 588 -195 0 -204 -9 -198 -213 4 -136 6 -473 4
-793 0 -112 -45 -177 -99 -143 -54 34 -90 215 -70 356 32 235 16 706 -26 752
-39 43 -289 61 -345 25z"/>
</g>
</svg>
